<?xml version="1.0" encoding="UTF-8"?>
<svg xmlns="http://www.w3.org/2000/svg" xmlns:xlink="http://www.w3.org/1999/xlink" width="20px" height="20px" viewBox="0 0 20 20" version="1.1">
<g id="surface1">
<path style=" stroke:none;fill-rule:nonzero;fill:rgb(0.784314%,53.333333%,81.960784%);fill-opacity:1;" d="M 3.507812 5.832031 L 3.53125 5.832031 C 4.691406 5.832031 5.417969 5 5.417969 3.957031 C 5.394531 2.894531 4.691406 2.082031 3.550781 2.082031 C 2.410156 2.082031 1.667969 2.894531 1.667969 3.957031 C 1.667969 5 2.390625 5.832031 3.507812 5.832031 Z M 1.667969 7.082031 L 5.417969 7.082031 L 5.417969 17.917969 L 1.667969 17.917969 Z M 18.332031 11.042969 C 18.332031 8.855469 16.5625 7.082031 14.375 7.082031 C 13.101562 7.082031 11.972656 7.6875 11.25 8.617188 L 11.25 7.082031 L 7.5 7.082031 L 7.5 17.917969 L 11.25 17.917969 L 11.25 11.667969 C 11.25 10.746094 11.996094 10 12.917969 10 C 13.835938 10 14.582031 10.746094 14.582031 11.667969 L 14.582031 17.917969 L 18.332031 17.917969 C 18.332031 17.917969 18.332031 11.648438 18.332031 11.042969 Z M 18.332031 11.042969 "/>
</g>
</svg>
